<?xml version="1.0" encoding="UTF-8" standalone="no"?>
<svg width="19px" height="18px" viewBox="0 0 19 18" version="1.1" xmlns="http://www.w3.org/2000/svg" xmlns:xlink="http://www.w3.org/1999/xlink">
    <!-- Generator: Sketch 3.6.1 (26313) - http://www.bohemiancoding.com/sketch -->
    <title>linkedin.svg</title>
    <desc>Created with Sketch.</desc>
    <defs></defs>
    <g id="Page-1" stroke="none" stroke-width="1" fill="none" fill-rule="evenodd">
        <g id="Tablet-Portrait" transform="translate(-442.000000, -977.000000)" fill="#0D203C">
            <g id="Group" transform="translate(307.000000, 976.000000)">
                <g id="Group-3">
                    <path d="M153.101189,11.6046218 L153.101189,18.2967469 L149.221518,18.2967469 L149.221518,12.05282 C149.221518,10.4842947 148.660366,9.41383745 147.256053,9.41383745 C146.184039,9.41383745 145.546083,10.1352472 145.265422,10.8330897 C145.163073,11.0825656 145.136728,11.4298035 145.136728,11.7790193 L145.136728,18.2967469 L141.255753,18.2967469 C141.255753,18.2967469 141.308021,7.72158415 141.255753,6.62591842 L145.136349,6.62591842 L145.136349,8.28021165 C145.12848,8.29258444 145.118253,8.30592518 145.110846,8.31791922 L145.136349,8.31791922 L145.136349,8.28021165 C145.651925,7.48612228 146.572688,6.35173896 148.633642,6.35173896 C151.187025,6.35169688 153.101189,8.01979377 153.101189,11.6046218 L153.101189,11.6046218 Z M137.196087,1 C135.86841,1 135,1.8708512 135,3.01605019 C135,4.13629318 135.843286,5.03357334 137.144576,5.03357334 L137.1705,5.03357334 C138.52389,5.03357334 139.365577,4.13646151 139.365577,3.01605019 C139.340074,1.8708512 138.52389,1 137.196087,1 L137.196087,1 Z M135.230496,18.2967469 L139.109998,18.2967469 L139.109998,6.62591842 L135.230496,6.62591842 L135.230496,18.2967469 L135.230496,18.2967469 Z" id="linkedin.svg"></path>
                </g>
            </g>
        </g>
    </g>
</svg>