<?xml version="1.0" encoding="UTF-8" standalone="no"?>
<svg width="18px" height="18px" viewBox="0 0 18 18" version="1.1" xmlns="http://www.w3.org/2000/svg" xmlns:xlink="http://www.w3.org/1999/xlink">
    <!-- Generator: Sketch 3.6.1 (26313) - http://www.bohemiancoding.com/sketch -->
    <title>instagram</title>
    <desc>Created with Sketch.</desc>
    <defs></defs>
    <g id="Page-1" stroke="none" stroke-width="1" fill="none" fill-rule="evenodd">
        <g id="Tablet-Portrait" transform="translate(-374.000000, -976.000000)" fill="#0D203C">
            <g id="Group" transform="translate(307.000000, 976.000000)">
                <g id="Group-3">
                    <path d="M82.9235112,17.999841 L69.0764888,17.999841 C67.9297925,17.999841 67,17.0697305 67,15.922239 L67,2.07648883 C67,0.929633458 67.9297925,2.48689958e-14 69.0764888,2.48689958e-14 L82.9235112,2.48689958e-14 C84.0703665,2.48689958e-14 85,0.929633458 85,2.07648883 L85,15.922239 C85,17.0697305 84.0703665,17.999841 82.9235112,17.999841 L82.9235112,17.999841 Z M75.9999205,5.53820466 C74.0880178,5.53820466 72.5383637,7.08769977 72.5383637,8.99960245 C72.5383637,10.9111871 74.0880178,12.4614773 75.9999205,12.4614773 C77.9118232,12.4614773 79.4617953,10.9111871 79.4617953,8.99960245 C79.4617953,7.08769977 77.9118232,5.53820466 75.9999205,5.53820466 L75.9999205,5.53820466 Z M82.9235112,2.76870478 C82.9235112,2.38657868 82.6134213,2.07648883 82.2305001,2.07648883 L80.1540113,2.07648883 C79.7715671,2.07648883 79.4617953,2.38657868 79.4617953,2.76870478 L79.4617953,4.84598871 C79.4617953,5.22811481 79.7715671,5.53820466 80.1540113,5.53820466 L82.2305001,5.53820466 C82.6134213,5.53820466 82.9235112,5.22811481 82.9235112,4.84598871 L82.9235112,2.76870478 Z M82.9235112,7.61453447 L81.3565238,7.61453447 C81.4707005,8.05772442 81.5381251,8.52079192 81.5381251,8.99960245 C81.5381251,12.0588376 79.0586785,14.5381251 75.9999205,14.5381251 C72.9413215,14.5381251 70.4617158,12.0588376 70.4617158,8.99960245 C70.4617158,8.52079192 70.5294585,8.05772442 70.6436352,7.61453447 L69.0764888,7.61453447 L69.0764888,15.2305001 C69.0764888,15.6123082 69.3865787,15.922239 69.7694999,15.922239 L82.2305001,15.922239 C82.6134213,15.922239 82.9235112,15.6123082 82.9235112,15.2305001 L82.9235112,7.61453447 Z" id="instagram"></path>
                </g>
            </g>
        </g>
    </g>
</svg>